<svg width="24" height="22" viewBox="0 0 24 22" fill="none" xmlns="http://www.w3.org/2000/svg">
<path d="M12.75 3.50011C9.06563 3.50011 5.94844 5.91417 4.88906 9.2423C6.46406 8.44542 8.24062 8.00011 10.125 8.00011H14.25C14.6625 8.00011 15 8.33761 15 8.75011C15 9.16261 14.6625 9.50011 14.25 9.50011H13.5H10.125C9.34687 9.50011 8.59219 9.58917 7.86563 9.75324C6.65156 10.0298 5.52188 10.522 4.51875 11.1923C1.79531 13.0064 0 16.1048 0 19.6251V20.3751C0 20.9985 0.501562 21.5001 1.125 21.5001C1.74844 21.5001 2.25 20.9985 2.25 20.3751V19.6251C2.25 17.3423 3.22031 15.2892 4.77188 13.8501C5.7 17.3892 8.92031 20.0001 12.75 20.0001H12.7969C18.9891 19.9673 24 13.8642 24 6.34074C24 4.34386 23.6484 2.44542 23.0109 0.734486C22.8891 0.411048 22.4156 0.425111 22.2516 0.729798C21.3703 2.3798 19.6266 3.50011 17.625 3.50011H12.75Z" fill="#059669"/>
</svg>
